# xmcd
#
# Track frame offsets: 
#        150
#        21320
#        38113
#        55470
#        72458
#        93989
#        112561
#        132484
#        149518
#        167255
#        189846
#        209805
#
# Disc length: 3027 seconds
#
# Revision: 11
# Processed by: cddbd v1.5.2PL0 Copyright (c) Steve Scherf et al.
# Submitted via: ExactAudioCopy v1.0b3
#
DISCID=ab0bd10c
DTITLE=??? - ????Live??? Disc 1
DYEAR=2004
DGENRE=Pop
TTITLE0=First of May
TTITLE1=?????
TTITLE2=??
TTITLE3=???
TTITLE4=??
TTITLE5=??
TTITLE6=???
TTITLE7=????
TTITLE8=???????
TTITLE9=??
TTITLE10=???
TTITLE11=????
EXTD=YEAR: 2004
EXTT0=
EXTT1=
EXTT2=
EXTT3=
EXTT4=
EXTT5=
EXTT6=
EXTT7=
EXTT8=
EXTT9=
EXTT10=
EXTT11=
PLAYORDER=
